<svg xmlns="http://www.w3.org/2000/svg" version="1.1" xmlns:xlink="http://www.w3.org/1999/xlink" xmlns:svgjs="http://svgjs.dev/svgjs" width="100%" height="100%" viewBox="0 0 1000 600"><rect width="1000" height="600" x="0" y="0" fill="#240046"/><g><circle r="166.66666666666666" cx="563.5149332682291" cy="585.7372344799836" fill="#a04ef6" transform="matrix(0.31498181472179065,0,0,0.3149818147217907,0,115.50342957122245)"/><path d="M503.03099181288616 660.7372625776025L503.03099181288616 660.7372625776025Q484.2460602073873 660.7372625776025 468.59712544842625 651.7950141439105Q452.94819068946526 642.8527657102185 443.4470517286675 626.3033962131426Q433.9459127678697 609.7540267160668 433.9459127678697 586.7463666835467L433.9459127678697 586.7463666835467Q433.9459127678697 563.9250034933953 442.88816120156173 546.8477929429416Q451.8304096352537 529.7395329187601 468.25558123741723 520.2383939579623Q484.6807528395807 510.73725499716454 507.0363739238107 510.73725499716454L507.0363739238107 510.73725499716454Q515.0781876193879 510.73725499716454 523.7099413157989 512.2897286835695Q532.3106455384818 513.8732518437024 539.6693708120409 517.5370897436179Q547.059145559328 521.2319771172614 551.6544676710864 527.2866244942404Q556.2187403091168 533.3102223974913 556.2187403091168 542.2524708311832L556.2187403091168 542.2524708311832Q556.4360866252134 551.8778076868934 550.4124887219625 559.1433845392683Q544.3888908187117 566.4089613916431 533.4284265926933 566.4089613916431L533.4284265926933 566.4089613916431Q526.7217402674244 566.4089613916431 523.9272876318956 563.1487666501928Q521.1328349963669 559.9196213824707 521.3501813124635 558.3360982223377L521.3501813124635 558.3360982223377Q521.3501813124635 557.6840592740476 524.1446339479922 556.0073876927304Q526.939086583521 554.3307161114132 529.7335392190498 550.8531750538663Q532.5279918545785 547.4066834700475 532.5279918545785 541.5693824091652L532.5279918545785 541.5693824091652Q532.5279918545785 531.5093529212617 525.8213055293095 525.6099529129232Q519.1146192040405 519.6795034308566 506.819027607714 519.6795034308566L506.819027607714 519.6795034308566Q493.405654957176 519.6795034308566 482.78673494216673 527.2866244942404Q472.16781492715745 534.8626960838961 466.1442170239066 549.518047683558Q460.0895696469276 564.17339928322 460.0895696469276 585.4112393132385L460.0895696469276 585.4112393132385Q460.0895696469276 603.2957361806225 466.4547117611876 617.9200383065563Q472.8509033491756 632.5753899062183 484.33920862857155 641.1760941289012Q495.8585633816957 649.7767983515841 511.0728055084634 649.7767983515841L511.0728055084634 649.7767983515841Q523.1510507886932 649.7767983515841 531.7517550113762 644.7467836076324Q540.3524592340591 639.7167688636806 547.2764918754248 628.5389583215656L547.2764918754248 628.5389583215656Q549.294707667751 624.7509225267378 554.4489203066153 627.8869193732755L554.4489203066153 627.8869193732755Q556.4360866252134 629.2220467435837 557.5538676794249 631.1160646409977Q558.6716487336365 633.0100825384116 557.1191750472316 635.0282983307379L557.1191750472316 635.0282983307379Q548.611619245733 645.7714162406596 541.0355476560773 651.2361236168047Q533.4284265926933 656.7008309929498 524.4861781590014 658.7190467852762Q515.5439297253093 660.7372625776025 503.03099181288616 660.7372625776025ZM578.1396687611534 656.9492267827746L578.1396687611534 656.9492267827746Q575.9041066527304 656.9492267827746 575.0036719146157 655.3657036226416Q574.1032371765008 653.8132299362368 574.1032371765008 652.0123604600071L574.1032371765008 652.0123604600071Q574.3205834925975 648.2243246651792 575.9041066527304 647.7585825592578Q577.4565803391354 647.3238899270644 579.6921424475584 647.3238899270644L579.6921424475584 647.3238899270644Q586.8645708787487 647.3238899270644 589.7521719354618 644.7467836076324Q592.670822465903 642.1696772882003 593.4470593091054 638.2574435984601Q594.2232961523079 634.3452099087199 594.2232961523079 630.1224814816985L594.2232961523079 630.1224814816985L594.2232961523079 541.3520360930685Q594.2232961523079 537.0982581923191 593.4470593091054 533.1860245025789Q592.670822465903 529.2737908128387 589.7521719354618 526.7277339671347Q586.8645708787487 524.1506276477025 579.6921424475584 524.1506276477025L579.6921424475584 524.1506276477025Q577.4565803391354 524.1506276477025 575.9041066527304 523.6848855417811Q574.3205834925975 523.2501929095878 574.1032371765008 519.4621571147599L574.1032371765008 519.4621571147599Q574.1032371765008 517.6612876385302 575.0036719146157 516.1088139521254Q575.9041066527304 514.5252907919925 578.1396687611534 514.5252907919925L578.1396687611534 514.5252907919925Q585.2810477186158 514.7426371080892 591.5530414116915 514.9910328979139Q597.793985631039 515.2083792140106 604.500671956308 515.2083792140106L604.500671956308 515.2083792140106L636.0469372640549 515.2083792140106Q648.9945678086715 515.2083792140106 656.4774909771429 517.1023971114246Q663.9914636193425 518.9964150088384 669.5803688904 522.5671044875696L669.5803688904 522.5671044875696Q675.3866204775541 526.3861897561255 678.7399636401886 532.9686781864822Q682.0933068028231 539.5822160905669 682.0933068028231 547.4066834700475L682.0933068028231 547.4066834700475Q682.0933068028231 557.4667129579509 677.4048362698804 564.2665477044043Q672.6853162632096 571.0974319245856 665.6681352006597 575.009665614326Q658.6199046643816 578.9218993040662 651.9132183391125 580.474372990471L651.9132183391125 580.474372990471L651.9132183391125 581.1574614124892Q663.7430678295177 580.9401150963924 672.9337120530345 585.4112393132385Q682.0933068028231 589.8823635300845 687.4648657577841 597.2410888036436Q692.8053752390167 604.6308635509307 693.0537710288415 613.355765668526L693.0537710288415 613.355765668526Q693.4884636610348 626.086049897046 687.6822120738807 634.3452099087199Q681.8759604867264 642.6354193941218 672.5921678420254 647.5412362431612Q663.3083751973243 652.4781025659286 652.4721088662183 654.4652688845268Q641.6358425351124 656.4834846768532 631.5758130472088 656.4834846768532L631.5758130472088 656.4834846768532L604.7490677461328 656.2661383607565Q598.0423814208639 656.2661383607565 591.6461898328757 656.3903362556689Q585.2810477186158 656.4834846768532 578.1396687611534 656.9492267827746ZM616.3615709204412 523.4675392256845L616.3615709204412 576.6863371956432L625.7385119863266 576.6863371956432Q630.2096362031725 576.6863371956432 635.7985414742301 576.2205950897217Q641.3874467452877 575.7859024575283 646.5416593841518 573.426142454193Q651.6958720230159 571.0974319245856 654.925017290738 565.6016750747124Q658.15416255846 560.1369676985673 658.15416255846 550.0769382106638L658.15416255846 550.0769382106638Q658.15416255846 538.2160392465306 652.4721088662183 530.8573139729716Q646.7590057002484 523.4675392256845 632.0105056794022 523.4675392256845L632.0105056794022 523.4675392256845L616.3615709204412 523.4675392256845ZM632.4451983115955 647.5412362431612L632.4451983115955 647.5412362431612Q642.5052277994992 647.3238899270644 650.795437284901 644.1878930805267Q659.0545972965749 641.0518962339888 663.9914636193425 633.6931709604298Q668.8972804683817 626.3033962131426 668.8972804683817 613.355765668526L668.8972804683817 613.355765668526Q668.2141920463637 606.1833372373355 664.0846120405267 599.942393017988Q659.9550320346898 593.6703993249124 650.6712393899886 589.6339677402598Q641.3874467452877 585.6285856293352 625.52116567023 585.6285856293352L625.52116567023 585.6285856293352L616.3615709204412 585.6285856293352L616.3615709204412 630.1224814816985Q616.3615709204412 641.3002920238137 619.7149140830757 644.4052393966233Q623.0682572457101 647.5412362431612 632.4451983115955 647.5412362431612Z " fill="#ffffff" transform="matrix(0.31498181472179065,0,0,0.3149818147217907,0,115.50342957122245)"/><path d="M868.0341919453226 642.9153884868999L868.0341919453226 642.9153884868999Q853.2098652757875 642.9153884868999 840.8603435543896 635.8585189318154Q828.5108218329917 628.8016493767309 821.0128979307143 615.7415400959668Q813.514974028437 602.6814308152027 813.514974028437 584.5246935224332L813.514974028437 584.5246935224332Q813.514974028437 566.5149743453945 820.5718435835215 553.0383137367262Q827.6287131386061 539.5371501087693 840.5908103422162 532.039226206492Q853.5529075458263 524.5413023042147 871.1950814335376 524.5413023042147L871.1950814335376 524.5413023042147Q877.5413634292561 524.5413023042147 884.3532027914557 525.7664532686391Q891.1405391343668 527.016107252352 896.9477547057384 529.9074635283935Q902.7794732963987 532.8233228237236 906.4059201510947 537.6014115849788Q910.0078639865026 542.3549973269454 910.0078639865026 549.4118668820299L910.0078639865026 549.4118668820299Q910.179385121522 557.0078028614612 905.4257993795553 562.7415093749673Q900.6722136375886 568.4752158884735 892.0226478287524 568.4752158884735L892.0226478287524 568.4752158884735Q886.729995662439 568.4752158884735 884.5247239264751 565.9023988631823Q882.3194521905111 563.3540848571796 882.4909733255306 562.1044308734668L882.4909733255306 562.1044308734668Q882.4909733255306 561.5898674684084 884.6962450614944 560.2667044268301Q886.9015167974584 558.9435413852518 889.1067885334223 556.1992032249411Q891.3120602693862 553.4793680839189 891.3120602693862 548.8728004576832L891.3120602693862 548.8728004576832Q891.3120602693862 540.9338222082131 886.0194081030729 536.2782485434004Q880.7267559367594 531.5981718592992 871.0235602985183 531.5981718592992L871.0235602985183 531.5981718592992Q860.4382559658914 531.5981718592992 852.0582233692285 537.6014115849788Q843.6781907725656 543.5801482913698 838.924605030599 555.1455733955361Q834.1465162693439 566.7109984997024 834.1465162693439 583.4710636930282L834.1465162693439 583.4710636930282Q834.1465162693439 597.5848028031972 839.169635223484 609.1257248880751Q844.2172571969124 620.6911499922414 853.283374333653 627.4784863351525Q862.373994489682 634.2658226780636 874.3804739410411 634.2658226780636L874.3804739410411 634.2658226780636Q883.9121484442628 634.2658226780636 890.699484787174 630.2963335533286Q897.4868211300852 626.3268444285936 902.9509944314179 617.505757484738L902.9509944314179 617.505757484738Q904.5436906851697 614.5163891315424 908.6111918870588 616.9911940796796L908.6111918870588 616.9911940796796Q910.179385121522 618.0448239090847 911.0614938159076 619.5395080856824Q911.9436025102932 621.0341922622802 910.7184515458687 622.6268885160318L910.7184515458687 622.6268885160318Q904.004624260823 631.1049331898487 898.0258875544318 635.4174645846226Q892.0226478287524 639.7299959793966 884.9657782736679 641.3226922331482Q877.9089087185832 642.9153884868999 868.0341919453226 642.9153884868999ZM923.6070396916134 639.9260201337045L923.6070396916134 639.9260201337045Q922.185864572881 639.9260201337045 921.4752770135149 638.7743782271455Q920.7646894541488 637.6227363205866 920.7646894541488 636.3975853561622L920.7646894541488 636.3975853561622Q920.9607136084567 633.7512592730054 922.087852495727 633.4817260608321Q923.239494402286 633.2121928486587 924.8321906560377 633.2121928486587L924.8321906560377 633.2121928486587Q929.7818005523122 633.2121928486587 931.6195269989489 631.5459875370416Q933.481756464874 629.8552792061358 933.7512896770475 627.0374319879597Q933.9963198699322 624.2195847697836 933.9963198699322 621.2057133972996L933.9963198699322 621.2057133972996L933.9963198699322 535.1266066368414Q933.9963198699322 531.941214129338 933.7512896770475 529.2213789883159Q933.481756464874 526.4770408280052 931.7175390761029 524.8108355163881Q929.9533216873317 523.1201271854824 925.0037117910572 523.1201271854824L925.0037117910572 523.1201271854824Q923.4110155373055 523.1201271854824 922.087852495727 522.6790728382896Q920.7646894541488 522.2380184910968 920.7646894541488 519.5916924079402L920.7646894541488 519.5916924079402Q920.7646894541488 516.9453663247834 923.6070396916134 516.4308029197252L923.6070396916134 516.4308029197252Q931.7175390761029 515.1811489360123 936.0300704708768 513.9559979715879Q940.3671048849392 512.706343987875 942.6458856787685 511.750726235624Q944.9491694918863 510.77060546408444 946.7133868806575 510.77060546408444L946.7133868806575 510.77060546408444Q948.1100589801013 510.77060546408444 949.0901797516408 511.38318094629665Q950.0703005231803 512.0202594477973 950.0703005231803 514.1275191066073L950.0703005231803 514.1275191066073L950.0703005231803 570.9255178173223L950.4133427932193 570.9255178173223Q953.9417775707614 567.593107194088 957.6417334833232 564.5057267637385Q961.3416893958847 561.4183463333891 966.3893113693134 559.3845957324445Q971.4124303234532 557.3508451315 978.8123421485766 557.3508451315L978.8123421485766 557.3508451315Q990.8188215999357 557.3508451315 997.8756911550204 564.579235821604Q1004.9325607101048 571.8076265117079 1004.9325607101048 583.6425848280476L1004.9325607101048 583.6425848280476L1004.9325607101048 621.2057133972996Q1004.9325607101048 624.2195847697836 1005.2020939222782 627.0374319879597Q1005.4471241151632 629.8552792061358 1007.3093535810881 631.5459875370416Q1009.1715830470132 633.2121928486587 1013.9251687889798 633.2121928486587L1013.9251687889798 633.2121928486587Q1015.689386177751 633.2121928486587 1016.743016007156 633.4817260608321Q1017.7966458365611 633.7512592730054 1017.992669990869 636.3975853561622L1017.992669990869 636.3975853561622Q1017.992669990869 637.6227363205866 1017.3555914893682 638.7743782271455Q1016.743016007156 639.9260201337045 1015.3463439077123 639.9260201337045L1015.3463439077123 639.9260201337045Q1010.2252128764183 639.5584748443771 1005.8146694044904 639.4849657865116Q1001.4041259325625 639.3869537093576 996.8220613256153 639.3869537093576L996.8220613256153 639.3869537093576Q992.0439725643603 639.3869537093576 987.8049502274519 639.4849657865116Q983.5904309098319 639.5584748443771 978.4692998785379 639.9260201337045L978.4692998785379 639.9260201337045Q977.0481247598057 639.9260201337045 976.3375372004393 638.7743782271455Q975.6514526603617 637.6227363205866 975.6514526603617 636.3975853561622L975.6514526603617 636.3975853561622Q975.8229737953811 633.7512592730054 976.8766036247862 633.4817260608321Q977.9302334541912 633.2121928486587 979.6944508429622 633.2121928486587L979.6944508429622 633.2121928486587Q984.6440607392369 633.2121928486587 986.4817871858734 631.5459875370416Q988.3440166517985 629.8552792061358 988.515537786818 627.0374319879597Q988.6870589218374 624.2195847697836 988.6870589218374 621.2057133972996L988.6870589218374 621.2057133972996L988.6870589218374 583.814105963067Q988.6870589218374 574.9930190192114 983.394406755524 571.0235298944763Q978.1017545892105 567.0540407697413 971.9269937285117 567.0540407697413L971.9269937285117 567.0540407697413Q965.9482570221205 567.0540407697413 961.3416893958847 569.2593125057051Q956.7596247889376 571.4645842416692 953.9417775707614 574.2824314598452Q951.1239303525854 577.1002786780214 950.0703005231803 579.2320413561198L950.0703005231803 579.2320413561198L950.0703005231803 621.2057133972996Q950.0703005231803 624.2195847697836 950.3153307160653 627.0374319879597Q950.5848639282385 629.8552792061358 952.4470933941636 631.5459875370416Q954.2848198408003 633.2121928486587 959.0629086020554 633.2121928486587L959.0629086020554 633.2121928486587Q960.8271259908265 633.2121928486587 961.8807558202316 633.4817260608321Q962.9343856496366 633.7512592730054 963.1059067846559 636.3975853561622L963.1059067846559 636.3975853561622Q963.1059067846559 637.6227363205866 962.4933313024437 638.7743782271455Q961.8807558202316 639.9260201337045 960.4595807014991 639.9260201337045L960.4595807014991 639.9260201337045Q955.3629526894938 639.5584748443771 950.9524092175659 639.4849657865116Q946.541865745638 639.3869537093576 941.9352981194024 639.3869537093576L941.9352981194024 639.3869537093576Q937.1817123774356 639.3869537093576 932.9426900405272 639.4849657865116Q928.7036677036187 639.5584748443771 923.6070396916134 639.9260201337045ZM1050.2631463938076 641.4942133681676L1050.2631463938076 641.4942133681676Q1039.5063209261614 641.4942133681676 1033.062026853289 635.3194525074687Q1026.6177327804166 629.1446916467697 1026.6177327804166 620.519628857222L1026.6177327804166 620.519628857222Q1026.6177327804166 611.5025177590584 1031.2978094645177 606.4058897470529Q1035.977886148619 601.2847587157589 1043.6473311859158 598.8099537676217Q1051.3167762232126 596.3351488194844 1060.4073963792416 595.4530401250988Q1069.4980165352706 594.5709314307132 1078.147582344107 594.056368025655L1078.147582344107 594.056368025655L1078.147582344107 580.1141500505053Q1078.147582344107 571.8076265117079 1074.0065720843525 567.1520528468952Q1069.8410588053093 562.471976162794 1059.9663420320487 562.471976162794L1059.9663420320487 562.471976162794Q1055.0412351550626 562.471976162794 1050.7042007410002 565.632865651009Q1046.3916693462263 568.8182581585124 1046.3916693462263 574.821497884192L1046.3916693462263 574.821497884192Q1046.3916693462263 577.639345102368 1047.7883414456703 579.5750836261586Q1049.2095165644025 581.5108221499491 1050.6306916831347 582.5889549986426Q1052.0273637825787 583.6425848280476 1052.0273637825787 583.9856270980864L1052.0273637825787 583.9856270980864Q1052.0273637825787 584.6962146574526 1049.9936131816341 586.5584441233777Q1047.9843655999782 588.3961705700142 1044.455930822436 588.3961705700142L1044.455930822436 588.3961705700142Q1038.9672545018145 588.3961705700142 1035.977886148619 584.3531723874137Q1032.9885177954236 580.2856711855247 1032.9885177954236 575.3360612892502L1032.9885177954236 575.3360612892502Q1032.9885177954236 568.646737023493 1037.129528055178 564.7507569566234Q1041.2705383149325 560.8792799090422 1047.7883414456703 559.1150625202712Q1054.3306475956965 557.3508451315 1061.0199718614538 557.3508451315L1061.0199718614538 557.3508451315Q1068.9589501109238 557.3508451315 1076.456874013201 559.2865836552905Q1083.9547979154786 561.2223221790812 1088.8063957345992 566.7109984997024Q1093.6579935537197 572.1751718010353 1093.6579935537197 583.1035184037008L1093.6579935537197 583.1035184037008L1093.6579935537197 624.2195847697836Q1093.8540177080276 625.9838021585548 1094.5401022481053 628.458607106692Q1095.2506898074714 630.9089090355408 1097.284440408416 632.7711385014659Q1099.3181910093604 634.633367967391 1102.8466257869027 634.633367967391L1102.8466257869027 634.633367967391Q1104.071776751327 634.633367967391 1104.7823643106933 635.0744223145838Q1105.4929518700594 635.5154766617766 1105.4929518700594 637.4512151855671L1105.4929518700594 637.4512151855671Q1105.4929518700594 639.0439114393189 1103.7287344812883 639.9260201337045Q1101.964517092517 640.8081288280899 1099.6612332793993 641.1511710981288Q1097.38245248557 641.4942133681676 1095.789756231818 641.4942133681676L1095.789756231818 641.4942133681676Q1089.2474500817918 641.4942133681676 1084.1508220697865 637.7207483977405Q1079.0296910384925 633.9227804080249 1078.147582344107 627.2089531229792L1078.147582344107 627.2089531229792Q1074.2516022772372 634.2658226780636 1066.5821572399404 637.8922695327599Q1058.912712202644 641.4942133681676 1050.2631463938076 641.4942133681676ZM1055.9233438494482 631.9870418842343L1055.9233438494482 631.9870418842343Q1061.9020805558393 631.9870418842343 1066.9497025292678 628.9731705117504Q1071.9728214834079 625.9838021585548 1075.0602019137573 620.7646590501068Q1078.147582344107 615.5700189609474 1078.147582344107 609.223736965229L1078.147582344107 609.223736965229L1078.147582344107 599.1529960376605Q1059.9663420320487 600.4026500213733 1052.198884917598 604.9847146283206Q1044.455930822436 609.5667792352679 1044.455930822436 619.9805624328752L1044.455930822436 619.9805624328752Q1044.455930822436 631.9870418842343 1055.9233438494482 631.9870418842343ZM1116.7888437620522 639.9260201337045L1116.7888437620522 639.9260201337045Q1115.5391897783395 639.9260201337045 1114.7550931611079 638.7743782271455Q1113.9464935245878 637.6227363205866 1113.9464935245878 636.3975853561622L1113.9464935245878 636.3975853561622Q1114.314038813915 633.7512592730054 1115.36766864332 633.4817260608321Q1116.421298472725 633.2121928486587 1118.1855158614962 633.2121928486587L1118.1855158614962 633.2121928486587Q1123.1351257577705 633.2121928486587 1124.899343146542 631.5459875370416Q1126.663560535313 629.8552792061358 1126.9330937474863 627.0374319879597Q1127.1781239403713 624.2195847697836 1127.1781239403713 621.2057133972996L1127.1781239403713 621.2057133972996L1127.1781239403713 580.8247376098715Q1127.1781239403713 577.639345102368 1126.9330937474863 574.8950069420574Q1126.663560535313 572.1751718010353 1124.899343146542 570.4844634701296Q1123.1351257577705 568.8182581585124 1118.1855158614962 568.8182581585124L1118.1855158614962 568.8182581585124Q1116.5928196077443 568.8182581585124 1115.269656566166 568.3772038113195Q1113.9464935245878 567.9361494641269 1113.9464935245878 565.2898233809701L1113.9464935245878 565.2898233809701Q1113.9464935245878 562.6434972978134 1116.7888437620522 562.1044308734668L1116.7888437620522 562.1044308734668Q1124.899343146542 560.8792799090422 1129.2118745413156 559.6541289446179Q1133.548908955378 558.404474960905 1135.7541806913418 557.5223662665194Q1137.959452427306 556.6402575721338 1139.723669816077 556.4687364371144L1139.723669816077 556.4687364371144Q1141.1203419155208 556.2972153020951 1142.1004626870604 557.0078028614612Q1143.0560804393115 557.6938874015389 1143.0560804393115 559.8256500796374L1143.0560804393115 559.8256500796374L1143.0560804393115 570.753996682303L1143.595146863658 570.753996682303Q1149.5983865893377 564.9467811109313 1155.944668585056 561.1488131212157Q1162.2909505807745 557.3508451315 1167.5836027470878 557.3508451315L1167.5836027470878 557.3508451315Q1173.7583636077868 557.3508451315 1177.0172651731557 561.9329097384473Q1180.300669757813 566.5149743453945 1180.300669757813 571.6361053766885L1180.300669757813 571.6361053766885Q1180.300669757813 576.0466488486163 1177.4583195203484 580.1876591083708Q1174.6404723021724 584.3531723874137 1169.0047778658202 584.3531723874137L1169.0047778658202 584.3531723874137Q1166.186930647644 584.3531723874137 1164.4962223167383 583.2015304808548Q1162.8300170051211 582.0498885742959 1162.658495870102 581.5108221499491L1162.658495870102 581.5108221499491Q1162.658495870102 581.1677798799103 1164.3247011817189 579.4035624911392Q1165.990906493336 577.639345102368 1165.990906493336 574.9930190192114L1165.990906493336 574.9930190192114Q1165.990906493336 571.8076265117079 1164.3247011817189 569.8718879879174Q1162.658495870102 567.9361494641269 1159.8161456326372 567.9361494641269L1159.8161456326372 567.9361494641269Q1156.8267772794416 567.9361494641269 1152.1467005953405 570.9255178173223Q1147.4666239112391 573.9393891898064 1143.2521045936192 578.1784115267149L1143.2521045936192 578.1784115267149L1143.2521045936192 621.2057133972996Q1143.2521045936192 624.2195847697836 1143.4971347865041 627.0374319879597Q1143.7666679986776 629.8552792061358 1145.6288974646025 631.5459875370416Q1147.4666239112391 633.2121928486587 1152.416233807514 633.2121928486587L1152.416233807514 633.2121928486587Q1154.0089300612656 633.2121928486587 1155.1605719678244 633.4817260608321Q1156.287710855095 633.7512592730054 1156.4837350094028 636.3975853561622L1156.4837350094028 636.3975853561622Q1156.4837350094028 637.6227363205866 1155.7731474500365 638.7743782271455Q1155.0625598906704 639.9260201337045 1153.6413847719382 639.9260201337045L1153.6413847719382 639.9260201337045Q1148.5447567599326 639.5584748443771 1144.2077223458703 639.4849657865116Q1139.8951909510963 639.3869537093576 1135.1171021898413 639.3869537093576L1135.1171021898413 639.3869537093576Q1130.3635164478746 639.3869537093576 1126.1244941109662 639.4849657865116Q1121.8854717740578 639.5584748443771 1116.7888437620522 639.9260201337045ZM1191.9396039198448 639.9260201337045L1191.9396039198448 639.9260201337045Q1190.689949936132 639.9260201337045 1189.9058533189002 638.7743782271455Q1189.1217567016688 637.6227363205866 1189.1217567016688 636.3975853561622L1189.1217567016688 636.3975853561622Q1189.293277836688 633.7512592730054 1190.444919743247 633.4817260608321Q1191.5720586305174 633.2121928486587 1193.1647548842693 633.2121928486587L1193.1647548842693 633.2121928486587Q1198.1143647805438 633.2121928486587 1199.9520912271805 631.5459875370416Q1201.8143206931054 629.8552792061358 1202.0838539052788 627.0374319879597Q1202.3533871174523 624.2195847697836 1202.3533871174523 621.2057133972996L1202.3533871174523 621.2057133972996L1202.3533871174523 580.8247376098715Q1202.3533871174523 577.639345102368 1202.0838539052788 574.8950069420574Q1201.8143206931054 572.1751718010353 1200.0501033043342 570.4844634701296Q1198.2858859155633 568.8182581585124 1193.3362760192886 568.8182581585124L1193.3362760192886 568.8182581585124Q1191.7680827848253 568.8182581585124 1190.444919743247 568.3772038113195Q1189.1217567016688 567.9361494641269 1189.1217567016688 565.2898233809701L1189.1217567016688 565.2898233809701Q1189.1217567016688 562.6434972978134 1191.9396039198448 562.1044308734668L1191.9396039198448 562.1044308734668Q1200.0501033043342 560.8792799090422 1204.3626346991082 559.6541289446179Q1208.6996691131706 558.404474960905 1210.9049408491344 557.5223662665194Q1213.1102125850985 556.6402575721338 1214.8744299738696 556.4687364371144L1214.8744299738696 556.4687364371144Q1216.2711020733134 556.2972153020951 1217.251222844853 557.0078028614612Q1218.2313436163925 557.6938874015389 1218.2313436163925 559.8256500796374L1218.2313436163925 559.8256500796374L1218.2313436163925 570.9255178173223L1218.7459070214506 570.9255178173223Q1222.274341798993 567.593107194088 1225.6312554415158 564.5057267637385Q1228.9881690840386 561.4183463333891 1233.7417548260053 559.3845957324445Q1238.5198435872603 557.3508451315 1245.919755412384 557.3508451315L1245.919755412384 557.3508451315Q1254.56932122122 557.3508451315 1260.744082081919 560.9772919861962Q1266.9188429426179 564.579235821604 1269.736690160794 570.9255178173223L1269.736690160794 570.9255178173223L1270.079732430833 570.9255178173223Q1273.608167208375 567.593107194088 1277.5041472752448 564.5057267637385Q1281.3756243228258 561.4183463333891 1286.668276489139 559.3845957324445Q1291.9609286554526 557.3508451315 1299.3853434998646 557.3508451315L1299.3853434998646 557.3508451315Q1311.367319931935 557.3508451315 1318.4241894870197 564.579235821604Q1325.481059042104 571.8076265117079 1325.481059042104 583.6425848280476L1325.481059042104 583.6425848280476L1325.481059042104 621.2057133972996Q1325.481059042104 624.2195847697836 1325.7505922542775 627.0374319879597Q1326.0201254664507 629.8552792061358 1327.8578519130874 631.5459875370416Q1329.7200813790125 633.2121928486587 1334.669691275287 633.2121928486587L1334.669691275287 633.2121928486587Q1336.2378845097503 633.2121928486587 1337.3895264163093 633.4817260608321Q1338.541168322868 633.7512592730054 1338.7126894578876 636.3975853561622L1338.7126894578876 636.3975853561622Q1338.7126894578876 637.6227363205866 1338.0021018985215 638.7743782271455Q1337.3160173584438 639.9260201337045 1335.8948422397114 639.9260201337045L1335.8948422397114 639.9260201337045Q1330.7737112084174 639.5584748443771 1326.4611798136436 639.4849657865116Q1322.1241453995813 639.3869537093576 1317.3705596576146 639.3869537093576L1317.3705596576146 639.3869537093576Q1312.616973915648 639.3869537093576 1308.3779515787396 639.4849657865116Q1304.1389292418312 639.5584748443771 1299.0177982105372 639.9260201337045L1299.0177982105372 639.9260201337045Q1297.6211261110934 639.9260201337045 1296.910538551727 638.7743782271455Q1296.199950992361 637.6227363205866 1296.199950992361 636.3975853561622L1296.199950992361 636.3975853561622Q1296.3714721273805 633.7512592730054 1297.5231140339395 633.4817260608321Q1298.6747559404982 633.2121928486587 1300.26745219425 633.2121928486587L1300.26745219425 633.2121928486587Q1305.192559071236 633.2121928486587 1307.0547885371611 631.5459875370416Q1308.8925149837978 629.8552792061358 1309.1620481959712 627.0374319879597Q1309.4315814081444 624.2195847697836 1309.4315814081444 621.2057133972996L1309.4315814081444 621.2057133972996L1309.4315814081444 583.814105963067Q1309.4315814081444 577.982387372407 1306.8832674021417 574.2824314598452Q1304.3104503768507 570.5824755472836 1300.4389733292694 568.8182581585124Q1296.5429932624 567.0540407697413 1292.4999950797994 567.0540407697413L1292.4999950797994 567.0540407697413Q1286.4967553541198 567.0540407697413 1282.2577330172114 569.2593125057051Q1278.018710680303 571.4645842416692 1275.5684087514542 574.2824314598452Q1273.093603803317 577.1002786780214 1272.0399739739119 579.2320413561198L1272.0399739739119 579.2320413561198L1272.0399739739119 621.2057133972996Q1272.0399739739119 624.2195847697836 1272.1134830317774 627.0374319879597Q1272.2114951089313 629.8552792061358 1273.8777004205485 631.5459875370416Q1275.5684087514542 633.2121928486587 1280.4935156284403 633.2121928486587L1280.4935156284403 633.2121928486587Q1282.2577330172114 633.2121928486587 1283.3113628466162 633.4817260608321Q1284.3894956953097 633.7512592730054 1284.5610168303292 636.3975853561622L1284.5610168303292 636.3975853561622Q1284.5610168303292 637.6227363205866 1283.850429270963 638.7743782271455Q1283.139841711597 639.9260201337045 1281.7431696121532 639.9260201337045L1281.7431696121532 639.9260201337045Q1276.6220385808592 639.5584748443771 1272.5545373789703 639.4849657865116Q1268.5115391963698 639.3869537093576 1263.7334504351145 639.3869537093576L1263.7334504351145 639.3869537093576Q1259.1513858281673 639.3869537093576 1255.1818967034321 639.4849657865116Q1251.2124075786971 639.5584748443771 1246.0912765474031 639.9260201337045L1246.0912765474031 639.9260201337045Q1244.6946044479594 639.9260201337045 1243.9840168885933 638.7743782271455Q1243.2734293292272 637.6227363205866 1243.2734293292272 636.3975853561622L1243.2734293292272 636.3975853561622Q1243.4449504642464 633.7512592730054 1244.4985802936515 633.4817260608321Q1245.576713142345 633.2121928486587 1247.340930531116 633.2121928486587L1247.340930531116 633.2121928486587Q1252.2660374081022 633.2121928486587 1253.9567457390078 631.5459875370416Q1255.622951050625 629.8552792061358 1255.720963127779 627.0374319879597Q1255.7944721856445 624.2195847697836 1255.7944721856445 621.2057133972996L1255.7944721856445 621.2057133972996L1255.7944721856445 583.814105963067Q1255.7944721856445 574.9930190192114 1250.501820019331 571.0235298944763Q1245.2091678530176 567.0540407697413 1239.0344069923187 567.0540407697413L1239.0344069923187 567.0540407697413Q1232.8596461316197 567.0540407697413 1228.6206237947113 569.2593125057051Q1224.4061044770913 571.4645842416692 1221.931299528954 574.2824314598452Q1219.4564945808168 577.1002786780214 1218.402864751412 579.2320413561198L1218.402864751412 579.2320413561198L1218.402864751412 621.2057133972996Q1218.402864751412 624.2195847697836 1218.6723979635851 627.0374319879597Q1218.9174281564701 629.8552792061358 1220.7796576223952 631.5459875370416Q1222.6418870883201 633.2121928486587 1227.5669939653062 633.2121928486587L1227.5669939653062 633.2121928486587Q1229.1596902190581 633.2121928486587 1230.311332125617 633.4817260608321Q1231.462974032176 633.7512592730054 1231.6344951671952 636.3975853561622L1231.6344951671952 636.3975853561622Q1231.6344951671952 637.6227363205866 1230.923907607829 638.7743782271455Q1230.213320048463 639.9260201337045 1228.8166479490192 639.9260201337045L1228.8166479490192 639.9260201337045Q1223.6955169177252 639.5584748443771 1219.3584825036628 639.4849657865116Q1215.045951108889 639.3869537093576 1210.2923653669222 639.3869537093576L1210.2923653669222 639.3869537093576Q1205.5142766056672 639.3869537093576 1201.2752542687588 639.4849657865116Q1197.0607349511388 639.5584748443771 1191.9396039198448 639.9260201337045ZM1370.8361477450953 641.4942133681676L1370.8361477450953 641.4942133681676Q1360.0548192581607 641.4942133681676 1353.6350282045769 635.3194525074687Q1347.1907341317044 629.1446916467697 1347.1907341317044 620.519628857222L1347.1907341317044 620.519628857222Q1347.1907341317044 611.5025177590584 1351.8708108158057 606.4058897470529Q1356.5263844806184 601.2847587157589 1364.2203325372036 598.8099537676217Q1371.8897775745002 596.3351488194844 1380.9803977305294 595.4530401250988Q1390.04651486727 594.5709314307132 1398.696080676106 594.056368025655L1398.696080676106 594.056368025655L1398.696080676106 580.1141500505053Q1398.696080676106 571.8076265117079 1394.5550704163516 567.1520528468952Q1390.414060156597 562.471976162794 1380.5393433833365 562.471976162794L1380.5393433833365 562.471976162794Q1375.589733487062 562.471976162794 1371.277202092288 565.632865651009Q1366.9401676782256 568.8182581585124 1366.9401676782256 574.821497884192L1366.9401676782256 574.821497884192Q1366.9401676782256 577.639345102368 1368.361342796958 579.5750836261586Q1369.7580148964018 581.5108221499491 1371.179190015134 582.5889549986426Q1372.6003651338665 583.6425848280476 1372.6003651338665 583.9856270980864L1372.6003651338665 583.9856270980864Q1372.6003651338665 584.6962146574526 1370.566614532922 586.5584441233777Q1368.5328639319773 588.3961705700142 1365.0044291544352 588.3961705700142L1365.0044291544352 588.3961705700142Q1359.5402558531023 588.3961705700142 1356.5263844806184 584.3531723874137Q1353.5370161274227 580.2856711855247 1353.5370161274227 575.3360612892502L1353.5370161274227 575.3360612892502Q1353.5370161274227 568.646737023493 1357.6780263871774 564.7507569566234Q1361.8190366469316 560.8792799090422 1368.361342796958 559.1150625202712Q1374.8791459276958 557.3508451315 1381.5929732127415 557.3508451315L1381.5929732127415 557.3508451315Q1389.5319514622117 557.3508451315 1397.0298753644888 559.2865836552905Q1404.5277992667661 561.2223221790812 1409.379397085887 566.7109984997024Q1414.2309949050075 572.1751718010353 1414.2309949050075 583.1035184037008L1414.2309949050075 583.1035184037008L1414.2309949050075 624.2195847697836Q1414.4025160400267 625.9838021585548 1415.113103599393 628.458607106692Q1415.8236911587592 630.9089090355408 1417.832938740415 632.7711385014659Q1419.8666893413597 634.633367967391 1423.395124118902 634.633367967391L1423.395124118902 634.633367967391Q1424.6447781026147 634.633367967391 1425.3308626426926 635.0744223145838Q1426.0414502020587 635.5154766617766 1426.0414502020587 637.4512151855671L1426.0414502020587 637.4512151855671Q1426.0414502020587 639.0439114393189 1424.2772328132876 639.9260201337045Q1422.5130154245164 640.8081288280899 1420.2342346306868 641.1511710981288Q1417.930950817569 641.4942133681676 1416.3382545638174 641.4942133681676L1416.3382545638174 641.4942133681676Q1409.8204514330796 641.4942133681676 1404.6993204017856 637.7207483977405Q1399.5781893704916 633.9227804080249 1398.696080676106 627.2089531229792L1398.696080676106 627.2089531229792Q1394.824603628525 634.2658226780636 1387.1551585912282 637.8922695327599Q1379.461210534643 641.4942133681676 1370.8361477450953 641.4942133681676ZM1376.4718421814475 631.9870418842343L1376.4718421814475 631.9870418842343Q1382.475081907127 631.9870418842343 1387.4982008612672 628.9731705117504Q1392.5213198154072 625.9838021585548 1395.6087002457566 620.7646590501068Q1398.696080676106 615.5700189609474 1398.696080676106 609.223736965229L1398.696080676106 609.223736965229L1398.696080676106 599.1529960376605Q1380.5393433833365 600.4026500213733 1372.771886268886 604.9847146283206Q1365.0044291544352 609.5667792352679 1365.0044291544352 619.9805624328752L1365.0044291544352 619.9805624328752Q1365.0044291544352 631.9870418842343 1376.4718421814475 631.9870418842343ZM1438.2194507884371 639.9260201337045L1438.2194507884371 639.9260201337045Q1436.9942998240128 639.9260201337045 1436.1857001874926 638.7743782271455Q1435.401603570261 637.6227363205866 1435.401603570261 636.3975853561622L1435.401603570261 636.3975853561622Q1435.7446458402999 633.7512592730054 1436.798275669705 633.4817260608321Q1437.8764085183982 633.2121928486587 1439.6406259071694 633.2121928486587L1439.6406259071694 633.2121928486587Q1444.5657327841557 633.2121928486587 1446.3299501729268 631.5459875370416Q1448.0941675616978 629.8552792061358 1448.3637007738712 627.0374319879597Q1448.6332339860446 624.2195847697836 1448.6332339860446 621.2057133972996L1448.6332339860446 621.2057133972996L1448.6332339860446 580.8247376098715Q1448.6332339860446 577.639345102368 1448.3637007738712 574.8950069420574Q1448.0941675616978 572.1751718010353 1446.3299501729268 570.4844634701296Q1444.5657327841557 568.8182581585124 1439.6406259071694 568.8182581585124L1439.6406259071694 568.8182581585124Q1438.047929653418 568.8182581585124 1436.7247666118394 568.3772038113195Q1435.401603570261 567.9361494641269 1435.401603570261 565.2898233809701L1435.401603570261 565.2898233809701Q1435.401603570261 562.6434972978134 1438.2194507884371 562.1044308734668L1438.2194507884371 562.1044308734668Q1446.3299501729268 560.8792799090422 1450.666984586989 559.6541289446179Q1454.979515981763 558.404474960905 1457.282799794881 557.5223662665194Q1459.5615805887103 556.6402575721338 1461.3257979774814 556.4687364371144L1461.3257979774814 556.4687364371144Q1462.7469730962137 556.2972153020951 1463.7025908484645 557.0078028614612Q1464.682711620004 557.6938874015389 1464.682711620004 559.8256500796374L1464.682711620004 559.8256500796374L1464.682711620004 621.2057133972996Q1464.682711620004 624.2195847697836 1464.9522448321775 627.0374319879597Q1465.221778044351 629.8552792061358 1467.0595044909876 631.5459875370416Q1468.9217339569125 633.2121928486587 1473.8468408338988 633.2121928486587L1473.8468408338988 633.2121928486587Q1475.4395370876503 633.2121928486587 1476.5911789942093 633.4817260608321Q1477.7428209007683 633.7512592730054 1477.9143420357875 636.3975853561622L1477.9143420357875 636.3975853561622Q1477.9143420357875 637.6227363205866 1477.2037544764214 638.7743782271455Q1476.4931669170553 639.9260201337045 1475.0964948176115 639.9260201337045L1475.0964948176115 639.9260201337045Q1469.9753637863175 639.5584748443771 1465.6628323915436 639.4849657865116Q1461.3257979774814 639.3869537093576 1456.5722122355148 639.3869537093576L1456.5722122355148 639.3869537093576Q1451.7941234742595 639.3869537093576 1447.5796041566396 639.4849657865116Q1443.3405818197311 639.5584748443771 1438.2194507884371 639.9260201337045ZM1455.690103541129 536.8908240256126L1455.690103541129 536.8908240256126Q1450.7404936448545 536.8908240256126 1447.3835800023319 533.8034435952632Q1444.0511693790975 530.7160631649136 1444.0511693790975 526.1339985579664L1444.0511693790975 526.1339985579664Q1444.0511693790975 522.0664973560774 1448.0941675616978 518.881104848574Q1452.1616687635867 515.720215360359 1457.282799794881 515.720215360359L1457.282799794881 515.720215360359Q1461.6933432668086 515.720215360359 1464.5111904849848 518.8075957907085Q1467.329037703161 521.894976221058 1467.329037703161 526.6485619630246L1467.329037703161 526.6485619630246Q1467.329037703161 530.887584299933 1463.972124060638 533.8769526531286Q1460.6152104181153 536.8908240256126 1455.690103541129 536.8908240256126ZM1489.5532761978195 639.9260201337045L1489.5532761978195 639.9260201337045Q1488.3281252333952 639.9260201337045 1487.519525596875 638.7743782271455Q1486.7354289796433 637.6227363205866 1486.7354289796433 636.3975853561622L1486.7354289796433 636.3975853561622Q1487.0784712496823 633.7512592730054 1488.1566040983755 633.4817260608321Q1489.2102339277806 633.2121928486587 1490.9744513165517 633.2121928486587L1490.9744513165517 633.2121928486587Q1495.8995581935376 633.2121928486587 1497.663775582309 631.5459875370416Q1499.42799297108 629.8552792061358 1499.6975261832533 627.0374319879597Q1499.9670593954268 624.2195847697836 1499.9670593954268 621.2057133972996L1499.9670593954268 621.2057133972996L1499.9670593954268 580.8247376098715Q1499.9670593954268 577.639345102368 1499.6975261832533 574.8950069420574Q1499.42799297108 572.1751718010353 1497.663775582309 570.4844634701296Q1495.8995581935376 568.8182581585124 1490.9744513165517 568.8182581585124L1490.9744513165517 568.8182581585124Q1489.3817550628003 568.8182581585124 1488.0585920212216 568.3772038113195Q1486.7354289796433 567.9361494641269 1486.7354289796433 565.2898233809701L1486.7354289796433 565.2898233809701Q1486.7354289796433 562.6434972978134 1489.5532761978195 562.1044308734668L1489.5532761978195 562.1044308734668Q1497.663775582309 560.8792799090422 1502.0008099963713 559.6541289446179Q1506.3133413911453 558.404474960905 1508.5186131271091 557.5223662665194Q1510.723884863073 556.6402575721338 1512.488102251844 556.4687364371144L1512.488102251844 556.4687364371144Q1513.9092773705763 556.2972153020951 1514.8648951228274 557.0078028614612Q1515.8450158943672 557.6938874015389 1515.8450158943672 559.8256500796374L1515.8450158943672 559.8256500796374L1515.8450158943672 570.9255178173223L1516.3840823187136 570.9255178173223Q1519.912517096256 567.593107194088 1523.6124730088177 564.5057267637385Q1527.3124289213793 561.4183463333891 1532.3355478755195 559.3845957324445Q1537.3586668296593 557.3508451315 1544.7830816740714 557.3508451315L1544.7830816740714 557.3508451315Q1556.7650581061419 557.3508451315 1563.8219276612265 564.579235821604Q1570.8787972163109 571.8076265117079 1570.8787972163109 583.6425848280476L1570.8787972163109 583.6425848280476L1570.8787972163109 621.2057133972996Q1570.8787972163109 624.2195847697836 1571.1483304284843 627.0374319879597Q1571.4178636406575 629.8552792061358 1573.2800931065829 631.5459875370416Q1575.1178195532195 633.2121928486587 1580.0674294494938 633.2121928486587L1580.0674294494938 633.2121928486587Q1581.6601257032455 633.2121928486587 1582.787264590516 633.4817260608321Q1583.9389064970749 633.7512592730054 1584.1104276320943 636.3975853561622L1584.1104276320943 636.3975853561622Q1584.1104276320943 637.6227363205866 1583.4243430920167 638.7743782271455Q1582.7137555326506 639.9260201337045 1581.2925804139184 639.9260201337045L1581.2925804139184 639.9260201337045Q1576.1714493826244 639.5584748443771 1571.8589179878504 639.4849657865116Q1567.5463865930765 639.3869537093576 1562.7682978318214 639.3869537093576L1562.7682978318214 639.3869537093576Q1558.0147120898548 639.3869537093576 1553.7756897529464 639.4849657865116Q1549.536667416038 639.5584748443771 1544.4155363847437 639.9260201337045L1544.4155363847437 639.9260201337045Q1543.1903854203194 639.9260201337045 1542.4062888030878 638.7743782271455Q1541.597689166568 637.6227363205866 1541.597689166568 636.3975853561622L1541.597689166568 636.3975853561622Q1541.7692103015872 633.7512592730054 1542.920852208146 633.4817260608321Q1544.072494114705 633.2121928486587 1545.6651903684567 633.2121928486587L1545.6651903684567 633.2121928486587Q1550.5902972454428 633.2121928486587 1552.452526711368 631.5459875370416Q1554.314756177293 629.8552792061358 1554.559786370178 627.0374319879597Q1554.8293195823514 624.2195847697836 1554.8293195823514 621.2057133972996L1554.8293195823514 621.2057133972996L1554.8293195823514 583.814105963067Q1554.8293195823514 577.982387372407 1552.2810055763487 574.2824314598452Q1549.7081885510572 570.5824755472836 1545.8367115034762 568.8182581585124Q1541.9652344558951 567.0540407697413 1537.897733254006 567.0540407697413L1537.897733254006 567.0540407697413Q1531.8944935283264 567.0540407697413 1527.3124289213793 569.2593125057051Q1522.730364314432 571.4645842416692 1519.912517096256 574.2824314598452Q1517.0701668587915 577.1002786780214 1516.0165370293864 579.2320413561198L1516.0165370293864 579.2320413561198L1516.0165370293864 621.2057133972996Q1516.0165370293864 624.2195847697836 1516.2860702415599 627.0374319879597Q1516.5556034537333 629.8552792061358 1518.3933299003695 631.5459875370416Q1520.2555593662948 633.2121928486587 1525.2051692625694 633.2121928486587L1525.2051692625694 633.2121928486587Q1526.7733624970326 633.2121928486587 1527.9250044035914 633.4817260608321Q1529.0766463101506 633.7512592730054 1529.2481674451699 636.3975853561622L1529.2481674451699 636.3975853561622Q1529.2481674451699 637.6227363205866 1528.5375798858038 638.7743782271455Q1527.851495345726 639.9260201337045 1526.4303202269937 639.9260201337045L1526.4303202269937 639.9260201337045Q1521.3091891957 639.5584748443771 1516.996657800926 639.4849657865116Q1512.6596233868636 639.3869537093576 1507.906037644897 639.3869537093576L1507.906037644897 639.3869537093576Q1503.1524519029304 639.3869537093576 1498.9134295660217 639.4849657865116Q1494.6744072291133 639.5584748443771 1489.5532761978195 639.9260201337045ZM1634.390623212072 641.4942133681676L1634.390623212072 641.4942133681676Q1620.8159505262493 641.4942133681676 1611.553809235201 635.686997796796Q1602.2916679441526 629.8552792061358 1597.7096033372052 620.1520835678946Q1593.127538730258 610.4488879296534 1593.127538730258 598.9814749026411L1593.127538730258 598.9814749026411Q1593.127538730258 591.2140177881904 1595.84737387128 583.912118040221Q1598.591712031591 576.5857152729631 1603.7128430628848 570.4844634701296Q1608.8094710748903 564.4077146865845 1616.0623647842826 560.8792799090422Q1623.2907554743867 557.3508451315 1632.454884688281 557.3508451315L1632.454884688281 557.3508451315Q1648.7003864765486 557.3508451315 1656.8843949189038 565.7308777281629Q1665.0929063805472 574.1109103248258 1666.34256036426 586.9994984705704L1666.34256036426 586.9994984705704Q1666.34256036426 593.1742593312695 1662.8876346445832 595.10999785506Q1659.4572119441948 597.0457363788505 1653.993038642862 597.0457363788505L1653.993038642862 597.0457363788505L1611.1127548880083 597.0457363788505Q1611.1127548880083 607.2879984414385 1613.930602106184 615.300485748774Q1616.7484493243603 623.3374760753981 1622.8497011271938 628.0175527594993Q1628.9264499107387 632.6731264243119 1638.9971908383075 632.6731264243119L1638.9971908383075 632.6731264243119Q1646.3971026634306 632.6731264243119 1651.6897548297443 629.512236936097Q1656.9824069960575 626.3268444285936 1661.932016892332 618.3878661791235L1661.932016892332 618.3878661791235Q1663.328688991776 616.6236487903524 1665.8034939399133 618.2163450441041L1665.8034939399133 618.2163450441041Q1667.2246690586455 618.9269326034703 1667.5677113286843 620.421616780068Q1667.9107535987232 621.9163009566657 1667.2246690586455 622.9699307860708L1667.2246690586455 622.9699307860708Q1661.7359927380242 631.619496594907 1653.4539722185152 636.5691064911816Q1645.1719516990063 641.4942133681676 1634.390623212072 641.4942133681676ZM1611.1127548880083 590.3319090938048L1611.1127548880083 590.3319090938048L1639.8792995326928 590.3319090938048Q1644.0938188503128 590.3319090938048 1646.666635875604 588.6657037821876Q1649.2149498816068 586.9994984705704 1649.3864710166265 582.9319972686815L1649.3864710166265 582.9319972686815Q1649.3864710166265 575.3360612892502 1645.2454607568718 569.4308336407246Q1641.104450497117 563.525605992199 1632.454884688281 563.525605992199L1632.454884688281 563.525605992199Q1623.6337977444255 563.525605992199 1617.7285700958998 570.5824755472836Q1611.8233424473742 577.639345102368 1611.1127548880083 590.3319090938048ZM1724.3657100393996 639.9260201337045L1724.3657100393996 639.9260201337045Q1722.6014926506284 639.9260201337045 1721.9154081105505 638.6763661499915Q1721.2048205511844 637.4512151855671 1721.2048205511844 636.0300400668348L1721.2048205511844 636.0300400668348Q1721.376341686204 633.0406717136393 1722.6014926506284 632.6731264243119Q1723.8511466343411 632.3300841542732 1725.615364023112 632.3300841542732L1725.615364023112 632.3300841542732Q1731.2510584594645 632.3300841542732 1733.5543422725825 630.2963335533286Q1735.8331230664119 628.2625829523842 1736.4702015679125 625.1752025220346Q1737.0827770501246 622.0878220916852 1737.0827770501246 618.7554114684508L1737.0827770501246 618.7554114684508L1737.0827770501246 548.7012793226638Q1737.0827770501246 545.344365680141 1736.4702015679125 542.2569852497915Q1735.8331230664119 539.1696048194419 1733.5543422725825 537.160357237786Q1731.2510584594645 535.1266066368414 1725.615364023112 535.1266066368414L1725.615364023112 535.1266066368414Q1723.8511466343411 535.1266066368414 1722.6014926506284 534.7590613475141Q1721.376341686204 534.4160190774753 1721.2048205511844 531.4266507242799L1721.2048205511844 531.4266507242799Q1721.2048205511844 530.0054756055474 1721.9154081105505 528.7803246411231Q1722.6014926506284 527.5306706574102 1724.3657100393996 527.5306706574102L1724.3657100393996 527.5306706574102Q1730.0259074950402 527.7021917924296 1734.951014372026 527.8982159467375Q1739.9006242683008 528.069737081757 1745.193276434614 528.069737081757L1745.193276434614 528.069737081757L1770.0638410124295 528.069737081757Q1780.3061030750173 528.069737081757 1786.211330723543 529.5644212583547Q1792.1165583720688 531.0591054349525 1796.5271018439964 533.8769526531286L1796.5271018439964 533.8769526531286Q1801.1091664509436 536.8908240256126 1803.7554925341003 542.0854641147721Q1806.401818617257 547.30460722322 1806.401818617257 553.4793680839189L1806.401818617257 553.4793680839189Q1806.401818617257 561.4183463333891 1802.7018627046953 566.7845075575678Q1799.0019067921337 572.1751718010353 1793.4397214136468 575.2625522313847Q1787.8775360351601 578.3499326617342 1782.5848838688466 579.5750836261586L1782.5848838688466 579.5750836261586L1782.5848838688466 580.1141500505053Q1791.945037237049 579.9426289154859 1799.1734279271532 583.4710636930282Q1806.401818617257 586.9994984705704 1810.6408409541655 592.8067140419421Q1814.879863291074 598.6384326326022 1815.0513844260934 605.5237810526673L1815.0513844260934 605.5237810526673Q1815.4189297154205 615.5700189609474 1810.812362089185 622.0878220916852Q1806.2302974822376 628.6301282417114 1798.9038947149797 632.5016052892926Q1791.6019949670101 636.3975853561622 1783.0259382160395 637.9657785906254Q1774.4743844843572 639.5584748443771 1766.5354062348872 639.5584748443771L1766.5354062348872 639.5584748443771L1745.3647975696335 639.3869537093576Q1740.0721454033203 639.3869537093576 1735.0490264491802 639.4849657865116Q1730.0259074950402 639.5584748443771 1724.3657100393996 639.9260201337045ZM1754.5534298028165 534.5875402124948L1754.5534298028165 576.5857152729631L1761.9533416279398 576.5857152729631Q1765.4817764054822 576.5857152729631 1769.8923198774098 576.2181699836358Q1774.302863349338 575.8751277135968 1778.3703645512267 574.0128982476718Q1782.4133627338272 572.1751718010353 1784.9861797591186 567.8381373869729Q1787.5344937651214 563.525605992199 1787.5344937651214 555.5866277427289L1787.5344937651214 555.5866277427289Q1787.5344937651214 546.2264743745266 1783.0259382160395 540.4192588031549Q1778.5418856862464 534.5875402124948 1766.9029515242144 534.5875402124948L1766.9029515242144 534.5875402124948L1754.5534298028165 534.5875402124948ZM1767.2459937942533 632.5016052892926L1767.2459937942533 632.5016052892926Q1775.1849720437233 632.3300841542732 1781.702775174461 629.8552792061358Q1788.2450813244875 627.3804742579986 1792.1165583720688 621.573258686627Q1796.0125384389382 615.7415400959668 1796.0125384389382 605.5237810526673L1796.0125384389382 605.5237810526673Q1795.4734720145914 599.8635835970266 1792.2145704492225 594.9384767200405Q1788.9556688838536 589.988866823766 1781.6292661165955 586.8034743162625Q1774.302863349338 583.6425848280476 1761.7818204929206 583.6425848280476L1761.7818204929206 583.6425848280476L1754.5534298028165 583.6425848280476L1754.5534298028165 618.7554114684508Q1754.5534298028165 627.5764984123065 1757.1997558859732 630.0268003411553Q1759.84608196913 632.5016052892926 1767.2459937942533 632.5016052892926ZM1852.0999495902868 641.4942133681676L1852.0999495902868 641.4942133681676Q1841.343124122641 641.4942133681676 1834.8988300497683 635.3194525074687Q1828.454535976896 629.1446916467697 1828.454535976896 620.519628857222L1828.454535976896 620.519628857222Q1828.454535976896 611.5025177590584 1833.1346126609972 606.4058897470529Q1837.8146893450987 601.2847587157589 1845.4841343823953 598.8099537676217Q1853.1535794196918 596.3351488194844 1862.244199575721 595.4530401250988Q1871.3348197317503 594.5709314307132 1879.9843855405863 594.056368025655L1879.9843855405863 594.056368025655L1879.9843855405863 580.1141500505053Q1879.9843855405863 571.8076265117079 1875.8433752808317 567.1520528468952Q1871.6778620017888 562.471976162794 1861.8031452285284 562.471976162794L1861.8031452285284 562.471976162794Q1856.878038351542 562.471976162794 1852.54100393748 565.632865651009Q1848.228472542706 568.8182581585124 1848.228472542706 574.821497884192L1848.228472542706 574.821497884192Q1848.228472542706 577.639345102368 1849.6251446421495 579.5750836261586Q1851.0463197608822 581.5108221499491 1852.4674948796144 582.5889549986426Q1853.8641669790584 583.6425848280476 1853.8641669790584 583.9856270980864L1853.8641669790584 583.9856270980864Q1853.8641669790584 584.6962146574526 1851.8304163781133 586.5584441233777Q1849.8211687964574 588.3961705700142 1846.292734018915 588.3961705700142L1846.292734018915 588.3961705700142Q1840.8040576982942 588.3961705700142 1837.8146893450987 584.3531723874137Q1834.8253209919028 580.2856711855247 1834.8253209919028 575.3360612892502L1834.8253209919028 575.3360612892502Q1834.8253209919028 568.646737023493 1838.9663312516575 564.7507569566234Q1843.1073415114117 560.8792799090422 1849.6251446421495 559.1150625202712Q1856.167450792176 557.3508451315 1862.856775057933 557.3508451315L1862.856775057933 557.3508451315Q1870.7957533074034 557.3508451315 1878.2936772096807 559.2865836552905Q1885.791601111958 561.2223221790812 1890.6431989310788 566.7109984997024Q1895.4947967501992 572.1751718010353 1895.4947967501992 583.1035184037008L1895.4947967501992 583.1035184037008L1895.4947967501992 624.2195847697836Q1895.690820904507 625.9838021585548 1896.3769054445845 628.458607106692Q1897.0874930039506 630.9089090355408 1899.1212436048952 632.7711385014659Q1901.1549942058398 634.633367967391 1904.683428983382 634.633367967391L1904.683428983382 634.633367967391Q1905.9085799478064 634.633367967391 1906.6191675071725 635.0744223145838Q1907.329755066539 635.5154766617766 1907.329755066539 637.4512151855671L1907.329755066539 637.4512151855671Q1907.329755066539 639.0439114393189 1905.5655376777675 639.9260201337045Q1903.8013202889967 640.8081288280899 1901.4980364758787 641.1511710981288Q1899.2192556820494 641.4942133681676 1897.626559428298 641.4942133681676L1897.626559428298 641.4942133681676Q1891.0842532782715 641.4942133681676 1885.987625266266 637.7207483977405Q1880.8664942349717 633.9227804080249 1879.9843855405863 627.2089531229792L1879.9843855405863 627.2089531229792Q1876.0884054737169 634.2658226780636 1868.4189604364199 637.8922695327599Q1860.7495153991233 641.4942133681676 1852.0999495902868 641.4942133681676ZM1857.7601470459279 631.9870418842343L1857.7601470459279 631.9870418842343Q1863.7388837523188 631.9870418842343 1868.7865057257475 628.9731705117504Q1873.8096246798875 625.9838021585548 1876.8970051102367 620.7646590501068Q1879.9843855405863 615.5700189609474 1879.9843855405863 609.223736965229L1879.9843855405863 609.223736965229L1879.9843855405863 599.1529960376605Q1861.8031452285284 600.4026500213733 1854.0356881140776 604.9847146283206Q1846.292734018915 609.5667792352679 1846.292734018915 619.9805624328752L1846.292734018915 619.9805624328752Q1846.292734018915 631.9870418842343 1857.7601470459279 631.9870418842343ZM1955.8457332577452 641.4942133681676L1955.8457332577452 641.4942133681676Q1937.6644929456868 641.4942133681676 1927.520242960253 629.9532912832898Q1917.3759929748187 618.3878661791235 1917.3759929748187 599.3490201919683L1917.3759929748187 599.3490201919683Q1917.9150593991656 587.1710196055899 1923.4772447776525 577.8108662373875Q1929.0149271368507 568.4752158884735 1938.2770684278992 563.0845516450063Q1947.5392097189476 557.6938874015389 1958.8351016109402 557.3508451315L1958.8351016109402 557.3508451315Q1965.0098624716395 557.3508451315 1971.4541565445118 558.8455293080979Q1977.898450617384 560.3402134846956 1982.210982012158 564.3097026094306Q1986.5480164262206 568.2791917341656 1986.5480164262206 575.7036065785775L1986.5480164262206 575.7036065785775Q1986.5480164262206 580.8247376098715 1983.3626239187167 585.1372690046453Q1980.1772314112134 589.4498003994192 1974.5415369748614 589.4498003994192L1974.5415369748614 589.4498003994192Q1970.6700599272801 589.4498003994192 1968.5382972491818 587.5140618756287Q1966.4310375903717 585.5783233518382 1966.4310375903717 584.6962146574526L1966.4310375903717 584.6962146574526Q1966.4310375903717 584.3531723874137 1967.9257217669694 583.2015304808548Q1969.4204059435672 582.0498885742959 1970.8415810622998 580.0161379733513Q1972.2382531617434 577.982387372407 1972.2382531617434 574.9930190192114L1972.2382531617434 574.9930190192114Q1972.2382531617434 569.3573245828591 1968.1952549791429 566.7109984997024Q1964.1277537772542 564.0646724165458 1959.00662274596 563.8686482622378L1959.00662274596 563.8686482622378Q1951.2636686507979 563.8686482622378 1946.5835919666963 567.0540407697413Q1941.9035152825952 570.2394332772446 1939.428710334458 575.4340733664042Q1936.9539053863207 580.6287134555636 1936.169808769089 586.8034743162625Q1935.3857121518574 592.9782351769616 1935.3857121518574 598.8099537676217L1935.3857121518574 598.8099537676217Q1935.3857121518574 608.5131494058628 1938.375080505053 616.1825944431596Q1941.3644488582488 623.8520394804564 1946.8531251788702 628.2625829523842Q1952.317298480203 632.6731264243119 1959.8887314403453 632.6731264243119L1959.8887314403453 632.6731264243119Q1967.656188554796 632.6731264243119 1972.9488407211095 629.3407158010776Q1978.241492887423 625.9838021585548 1982.6520363593506 619.4414960085285L1982.6520363593506 619.4414960085285Q1983.9016903430636 617.6772786197573 1986.3519922719126 619.0984537384896L1986.3519922719126 619.0984537384896Q1987.6016462556252 619.8090412978559 1988.1162096606834 621.0341922622802Q1988.6552760850302 622.2838462459931 1987.7731673906449 623.5089972104174L1987.7731673906449 623.5089972104174Q1981.9414487999845 631.7910177299264 1973.316386010437 636.642615549047Q1964.6668202016006 641.4942133681676 1955.8457332577452 641.4942133681676ZM2042.2923853075306 641.4942133681676L2042.2923853075306 641.4942133681676Q2029.9428635861325 641.4942133681676 2020.680722295084 635.686997796796Q2011.4185810040356 629.8552792061358 2006.2974499727418 620.519628857222Q2001.1763189414476 611.1594754890195 2001.1763189414476 600.5741711563928L2001.1763189414476 600.5741711563928Q2001.1763189414476 590.1603879587853 2004.8762748540091 582.0498885742959Q2008.6007337858593 573.9393891898064 2014.6774825694044 568.4752158884735Q2020.7542313529495 562.9865395678523 2028.007125062342 560.1686923496761Q2035.235515752446 557.3508451315 2042.2923853075306 557.3508451315L2042.2923853075306 557.3508451315Q2054.6419070289285 557.3508451315 2063.904048319977 563.1825637221602Q2073.1661896110254 568.9897792935318 2078.287320642319 578.3499326617342Q2083.3839486543247 587.6855830106481 2083.3839486543247 598.2708873432749L2083.3839486543247 598.2708873432749Q2083.3839486543247 608.6846705408823 2079.6104836838977 616.7951699253717Q2075.8125156941824 624.9301723291499 2069.7112638913486 630.3943456304826Q2063.634515107803 635.8585189318154 2056.406124417699 638.6763661499915Q2049.1777337275953 641.4942133681676 2042.2923853075306 641.4942133681676ZM2042.2923853075306 634.9764102374298L2042.2923853075306 634.9764102374298Q2050.941951116367 634.9764102374298 2055.965070070507 629.8552792061358Q2060.988189024647 624.7341481748418 2063.193460760611 616.3541155781791Q2065.3987324965747 607.9740829815162 2065.3987324965747 598.2708873432749L2065.3987324965747 598.2708873432749Q2065.3987324965747 588.935236994361 2063.095448683457 581.1677798799103Q2060.8166678896278 573.4003227654596 2055.695536858333 568.646737023493Q2050.5744058270393 563.8686482622378 2042.2923853075306 563.8686482622378L2042.2923853075306 563.8686482622378Q2033.642819498694 563.8686482622378 2028.5216884674003 568.9162702356664Q2023.4005574361065 573.9393891898064 2021.2932977772964 582.1479006514498Q2019.1860381184863 590.3319090938048 2019.1860381184863 600.2311288863539L2019.1860381184863 600.2311288863539Q2019.1860381184863 609.3952581002484 2021.3913098544501 617.3342363497186Q2023.596581590414 625.2732145991886 2028.6932096024195 630.1248124183093Q2033.8143406337138 634.9764102374298 2042.2923853075306 634.9764102374298ZM2098.20827532386 639.9260201337045L2098.20827532386 639.9260201337045Q2096.9831243594354 639.9260201337045 2096.1745247229155 638.7743782271455Q2095.390428105684 637.6227363205866 2095.390428105684 636.3975853561622L2095.390428105684 636.3975853561622Q2095.7334703757224 633.7512592730054 2096.811603224416 633.4817260608321Q2097.8652330538216 633.2121928486587 2099.6294504425923 633.2121928486587L2099.6294504425923 633.2121928486587Q2104.5545573195786 633.2121928486587 2106.3187747083493 631.5459875370416Q2108.082992097121 629.8552792061358 2108.352525309294 627.0374319879597Q2108.622058521467 624.2195847697836 2108.622058521467 621.2057133972996L2108.622058521467 621.2057133972996L2108.622058521467 580.8247376098715Q2108.622058521467 577.639345102368 2108.352525309294 574.8950069420574Q2108.082992097121 572.1751718010353 2106.3187747083493 570.4844634701296Q2104.5545573195786 568.8182581585124 2099.6294504425923 568.8182581585124L2099.6294504425923 568.8182581585124Q2098.036754188841 568.8182581585124 2096.7135911472624 568.3772038113195Q2095.390428105684 567.9361494641269 2095.390428105684 565.2898233809701L2095.390428105684 565.2898233809701Q2095.390428105684 562.6434972978134 2098.20827532386 562.1044308734668L2098.20827532386 562.1044308734668Q2106.3187747083493 560.8792799090422 2110.6558091224115 559.6541289446179Q2114.9683405171854 558.404474960905 2117.17361225315 557.5223662665194Q2119.378883989114 556.6402575721338 2121.1431013778847 556.4687364371144L2121.1431013778847 556.4687364371144Q2122.564276496617 556.2972153020951 2123.519894248868 557.0078028614612Q2124.500015020408 557.6938874015389 2124.500015020408 559.8256500796374L2124.500015020408 559.8256500796374L2124.500015020408 570.9255178173223L2125.0390814447546 570.9255178173223Q2128.567516222296 567.593107194088 2132.2674721348585 564.5057267637385Q2135.96742804742 561.4183463333891 2140.99054700156 559.3845957324445Q2146.0136659557 557.3508451315 2153.4380808001115 557.3508451315L2153.4380808001115 557.3508451315Q2165.4200572321824 557.3508451315 2172.476926787267 564.579235821604Q2179.5337963423517 571.8076265117079 2179.5337963423517 583.6425848280476L2179.5337963423517 583.6425848280476L2179.5337963423517 621.2057133972996Q2179.5337963423517 624.2195847697836 2179.8033295545247 627.0374319879597Q2180.0728627666977 629.8552792061358 2181.935092232623 631.5459875370416Q2183.77281867926 633.2121928486587 2188.7224285755347 633.2121928486587L2188.7224285755347 633.2121928486587Q2190.315124829286 633.2121928486587 2191.442263716556 633.4817260608321Q2192.5939056231155 633.7512592730054 2192.7654267581347 636.3975853561622L2192.7654267581347 636.3975853561622Q2192.7654267581347 637.6227363205866 2192.0793422180577 638.7743782271455Q2191.3687546586916 639.9260201337045 2189.9475795399585 639.9260201337045L2189.9475795399585 639.9260201337045Q2184.8264485086647 639.5584748443771 2180.513917113891 639.4849657865116Q2176.201385719117 639.3869537093576 2171.4232969578625 639.3869537093576L2171.4232969578625 639.3869537093576Q2166.6697112158954 639.3869537093576 2162.430688878987 639.4849657865116Q2158.1916665420786 639.5584748443771 2153.070535510785 639.9260201337045L2153.070535510785 639.9260201337045Q2151.84538454636 639.9260201337045 2151.0612879291284 638.7743782271455Q2150.2526882926086 637.6227363205866 2150.2526882926086 636.3975853561622L2150.2526882926086 636.3975853561622Q2150.424209427628 633.7512592730054 2151.575851334187 633.4817260608321Q2152.7274932407454 633.2121928486587 2154.320189494497 633.2121928486587L2154.320189494497 633.2121928486587Q2159.245296371483 633.2121928486587 2161.1075258374085 631.5459875370416Q2162.969755303334 629.8552792061358 2163.2147854962186 627.0374319879597Q2163.4843187083916 624.2195847697836 2163.4843187083916 621.2057133972996L2163.4843187083916 621.2057133972996L2163.4843187083916 583.814105963067Q2163.4843187083916 577.982387372407 2160.9360047023893 574.2824314598452Q2158.363187677098 570.5824755472836 2154.491710629517 568.8182581585124Q2150.6202335819353 567.0540407697413 2146.552732380046 567.0540407697413L2146.552732380046 567.0540407697413Q2140.549492654367 567.0540407697413 2135.96742804742 569.2593125057051Q2131.3853634404722 571.4645842416692 2128.567516222296 574.2824314598452Q2125.7251659848316 577.1002786780214 2124.671536155427 579.2320413561198L2124.671536155427 579.2320413561198L2124.671536155427 621.2057133972996Q2124.671536155427 624.2195847697836 2124.9410693676 627.0374319879597Q2125.210602579774 629.8552792061358 2127.04832902641 631.5459875370416Q2128.9105584923354 633.2121928486587 2133.86016838861 633.2121928486587L2133.86016838861 633.2121928486587Q2135.428361623073 633.2121928486587 2136.5800035296315 633.4817260608321Q2137.731645436191 633.7512592730054 2137.90316657121 636.3975853561622L2137.90316657121 636.3975853561622Q2137.90316657121 637.6227363205866 2137.192579011844 638.7743782271455Q2136.506494471767 639.9260201337045 2135.085319353034 639.9260201337045L2135.085319353034 639.9260201337045Q2129.96418832174 639.5584748443771 2125.651656926966 639.4849657865116Q2121.314622512904 639.3869537093576 2116.561036770938 639.3869537093576L2116.561036770938 639.3869537093576Q2111.8074510289707 639.3869537093576 2107.5684286920623 639.4849657865116Q2103.329406355154 639.5584748443771 2098.20827532386 639.9260201337045ZM2201.9540589913177 660.5575623746113L2201.9540589913177 660.5575623746113Q2200.189841602547 661.096628798958 2199.0381996959877 660.0184959502645Q2197.8865577894294 658.9648661208596 2197.8865577894294 657.3721698671078Q2197.8865577894294 655.8039766326447 2199.6507751782 655.0933890732784L2199.6507751782 655.0933890732784Q2214.6466229827547 649.4331916176377 2214.6466229827547 639.3869537093576L2214.6466229827547 639.3869537093576Q2214.6466229827547 636.2015612018542 2212.61287238181 634.1923136201982Q2210.6036248001546 632.1585630192537 2208.030807774863 630.663878842656Q2205.48249376886 629.1446916467697 2203.4487431679154 627.2089531229792Q2201.414992566971 625.2732145991886 2201.414992566971 622.2838462459931L2201.414992566971 622.2838462459931Q2201.414992566971 618.9269326034703 2203.9878095922622 616.1825944431596Q2206.5361235982655 613.4627593021374 2210.236079510827 613.4627593021374L2210.236079510827 613.4627593021374Q2215.357210542121 613.4627593021374 2219.42471174401 616.6236487903524Q2223.46770992661 619.8090412978559 2225.7709937397285 624.6606391169764Q2228.049774533558 629.512236936097 2228.049774533558 634.4373438130831L2228.049774533558 634.4373438130831Q2228.049774533558 641.6902375224755 2224.0802854088224 646.8848776116349Q2220.110796284088 652.0795177007944 2214.132059577696 655.4364313433173Q2208.128819852017 658.7933449858401 2201.9540589913177 660.5575623746113ZM2286.979535922371 639.9260201337045L2286.979535922371 639.9260201337045Q2285.3868396686194 639.9260201337045 2284.7007551285415 638.6763661499915Q2283.9901675691754 637.4512151855671 2283.9901675691754 636.0300400668348L2283.9901675691754 636.0300400668348Q2284.1616887041946 633.0406717136393 2285.3868396686194 632.6731264243119Q2286.6364936523323 632.3300841542732 2288.400711041104 632.3300841542732L2288.400711041104 632.3300841542732Q2294.0364054774554 632.3300841542732 2296.339689290573 630.2963335533286Q2298.6184700844033 628.2625829523842 2299.255548585904 625.1752025220346Q2299.8681240681153 622.0878220916852 2299.8681240681153 618.7554114684508L2299.8681240681153 618.7554114684508L2299.8681240681153 548.7012793226638Q2299.8681240681153 545.344365680141 2299.255548585904 542.2569852497915Q2298.6184700844033 539.1696048194419 2296.339689290573 537.160357237786Q2294.0364054774554 535.1266066368414 2288.400711041104 535.1266066368414L2288.400711041104 535.1266066368414Q2286.6364936523323 535.1266066368414 2285.3868396686194 534.7590613475141Q2284.1616887041946 534.4160190774753 2283.9901675691754 531.4266507242799L2283.9901675691754 531.4266507242799Q2283.9901675691754 530.0054756055474 2284.7007551285415 528.7803246411231Q2285.3868396686194 527.5306706574102 2286.979535922371 527.5306706574102L2286.979535922371 527.5306706574102Q2292.6397333780114 527.7021917924296 2297.6628523321515 527.8982159467375Q2302.6859712862915 528.069737081757 2307.9786234526055 528.069737081757L2307.9786234526055 528.069737081757L2358.9694065919484 528.069737081757Q2360.9051451157393 528.069737081757 2362.2283081573178 528.9518457761425Q2363.5514711988963 529.833954470528 2363.5514711988963 532.3087594186653L2363.5514711988963 532.3087594186653L2364.090537623243 557.0078028614612Q2364.090537623243 558.7720202502323 2362.399829292337 559.6541289446179Q2360.73362398072 560.5362376390035 2359.312448861987 560.5362376390035L2359.312448861987 560.5362376390035Q2357.376710338197 560.5362376390035 2355.710505026579 559.7276380024834Q2354.019796695674 558.9435413852518 2353.6767544256354 557.3508451315L2353.6767544256354 557.3508451315Q2352.62312459623 549.4118668820299 2350.9324162653247 544.5602690629094Q2349.2662109537077 539.7086712437888 2346.0073093883384 537.5033995078248Q2342.723904803681 535.2981277718609 2336.5491439429825 535.1266066368414L2336.5491439429825 535.1266066368414L2317.3387768208077 535.1266066368414L2317.3387768208077 580.9962587448908L2348.89866566438 580.9962587448908Q2350.3198407831123 581.1677798799103 2351.0304283424784 582.3929308443347Q2351.7410159018445 583.6425848280476 2351.7410159018445 585.0392569274914L2351.7410159018445 585.0392569274914Q2351.7410159018445 586.2889109112043 2351.0304283424784 587.4405528177632Q2350.3198407831123 588.5676917050337 2348.89866566438 588.5676917050337L2348.89866566438 588.5676917050337L2317.3387768208077 588.5676917050337L2317.3387768208077 618.7554114684508Q2317.510297955827 622.0878220916852 2318.0248613608856 625.1752025220346Q2318.5639277852324 628.2625829523842 2320.9407206562155 630.2963335533286Q2323.3175135271986 632.3300841542732 2328.80618984782 632.3300841542732L2328.80618984782 632.3300841542732Q2330.5704072365907 632.3300841542732 2331.7955582010154 632.6731264243119Q2333.02070916544 633.0406717136393 2333.2167333197476 636.0300400668348L2333.2167333197476 636.0300400668348Q2333.2167333197476 637.4512151855671 2332.5061457603815 638.6763661499915Q2331.7955582010154 639.9260201337045 2330.0313408122447 639.9260201337045L2330.0313408122447 639.9260201337045Q2318.7354489202517 639.3869537093576 2308.1501445876247 639.3869537093576L2308.1501445876247 639.3869537093576Q2302.857492421311 639.3869537093576 2297.736361390017 639.4849657865116Q2292.6397333780114 639.5584748443771 2286.979535922371 639.9260201337045ZM2373.5977091071763 639.9260201337045L2373.5977091071763 639.9260201337045Q2372.3725581427516 639.9260201337045 2371.58846152552 638.7743782271455Q2370.779861889 637.6227363205866 2370.779861889 636.3975853561622L2370.779861889 636.3975853561622Q2370.9513830240194 633.7512592730054 2372.1030249305786 633.4817260608321Q2373.254666837137 633.2121928486587 2374.8473630908884 633.2121928486587L2374.8473630908884 633.2121928486587Q2379.7724699678747 633.2121928486587 2381.6346994338 631.5459875370416Q2383.4969288997254 629.8552792061358 2383.74195909261 627.0374319879597Q2384.011492304783 624.2195847697836 2384.011492304783 621.2057133972996L2384.011492304783 621.2057133972996L2384.011492304783 535.1266066368414Q2384.011492304783 531.941214129338 2383.74195909261 529.2213789883159Q2383.4969288997254 526.4770408280052 2381.732711510954 524.8108355163881Q2379.968494122183 523.1201271854824 2375.0188842259086 523.1201271854824L2375.0188842259086 523.1201271854824Q2373.426187972156 523.1201271854824 2372.1030249305786 522.6790728382896Q2370.779861889 522.2380184910968 2370.779861889 519.5916924079402L2370.779861889 519.5916924079402Q2370.779861889 516.9453663247834 2373.5977091071763 516.4308029197252L2373.5977091071763 516.4308029197252Q2381.732711510954 515.1811489360123 2386.0452429057277 513.9559979715879Q2390.3577743005017 512.706343987875 2392.661058113619 511.82423529348944Q2394.9643419267377 510.94212659910386 2396.7285593155084 510.77060546408444L2396.7285593155084 510.77060546408444Q2398.1252314149524 510.599084329065 2399.1053521864915 511.3096718884312Q2400.0609699387433 512.0202594477973 2400.0609699387433 514.1275191066073L2400.0609699387433 514.1275191066073L2400.0609699387433 621.2057133972996Q2400.0609699387433 624.2195847697836 2400.3305031509162 627.0374319879597Q2400.600036363089 629.8552792061358 2402.4622658290145 631.5459875370416Q2404.2999922756508 633.2121928486587 2409.249602171926 633.2121928486587L2409.249602171926 633.2121928486587Q2410.8422984256777 633.2121928486587 2411.969437312948 633.4817260608321Q2413.121079219507 633.7512592730054 2413.2926003545263 636.3975853561622L2413.2926003545263 636.3975853561622Q2413.2926003545263 637.6227363205866 2412.6065158144493 638.7743782271455Q2411.8959282550823 639.9260201337045 2410.47475313635 639.9260201337045L2410.47475313635 639.9260201337045Q2405.3536221050563 639.5584748443771 2401.0410907102823 639.4849657865116Q2396.7285593155084 639.3869537093576 2391.950470554253 639.3869537093576L2391.950470554253 639.3869537093576Q2387.196884812287 639.3869537093576 2382.9578624753785 639.4849657865116Q2378.71884013847 639.5584748443771 2373.5977091071763 639.9260201337045ZM2458.4761679224985 641.4942133681676L2458.4761679224985 641.4942133681676Q2446.4696884711393 641.4942133681676 2439.4128189160547 634.2658226780636Q2432.35594936097 627.0374319879597 2432.35594936097 615.2269766909085L2432.35594936097 615.2269766909085L2432.35594936097 582.5889549986426Q2432.35594936097 579.4035624911392 2432.086416148797 576.6592243308285Q2431.816882936623 573.9393891898064 2430.0526655478516 572.2486808589007Q2428.288448159081 570.5824755472836 2423.3633412820946 570.5824755472836L2423.3633412820946 570.5824755472836Q2421.770645028343 570.5824755472836 2420.4474819867646 570.1414212000907Q2419.124318945186 569.700366852898 2419.124318945186 567.0540407697413L2419.124318945186 567.0540407697413Q2419.124318945186 564.4077146865845 2421.9421661633623 563.8686482622378L2421.9421661633623 563.8686482622378Q2430.0526655478516 562.6434972978134 2434.3896999619146 561.4183463333891Q2438.7022313566886 560.1686923496761 2441.005515169806 559.2865836552905Q2443.2842959636355 558.404474960905 2445.048513352407 558.2329538258856L2445.048513352407 558.2329538258856Q2446.4696884711393 558.0614326908662 2447.4498092426784 558.7720202502323Q2448.4054269949293 559.45810479031 2448.4054269949293 561.5898674684084L2448.4054269949293 561.5898674684084L2448.4054269949293 615.0309525366006Q2448.4054269949293 620.8626711272608 2450.9782440202207 624.5626270398225Q2453.526558026224 628.2625829523842 2457.3980350738047 630.0268003411553Q2461.2940151406747 631.7910177299264 2465.3370133232747 631.7910177299264L2465.3370133232747 631.7910177299264Q2471.511774183974 631.7910177299264 2476.118341810209 629.5857459939625Q2480.700406417156 627.3804742579986 2483.518253635333 624.489117981957Q2486.3361008535094 621.573258686627 2487.2182095478947 619.6375201628364L2487.2182095478947 619.6375201628364L2487.2182095478947 582.5889549986426Q2487.2182095478947 579.4035624911392 2486.948676335721 576.6592243308285Q2486.703646142836 573.9393891898064 2484.9394287540654 572.2486808589007Q2483.1752113652938 570.5824755472836 2478.2256014690192 570.5824755472836L2478.2256014690192 570.5824755472836Q2476.632905215268 570.5824755472836 2475.3097421736893 570.1414212000907Q2473.986579132111 569.700366852898 2473.986579132111 567.0540407697413L2473.986579132111 567.0540407697413Q2473.986579132111 564.4077146865845 2476.804426350287 563.8686482622378L2476.804426350287 563.8686482622378Q2484.9394287540654 562.6434972978134 2489.2519601488393 561.4183463333891Q2493.5644915436133 560.1686923496761 2495.867775356731 559.2865836552905Q2498.1710591698484 558.404474960905 2499.93527655862 558.2329538258856L2499.93527655862 558.2329538258856Q2501.331948658064 558.0614326908662 2502.312069429603 558.7720202502323Q2503.267687181854 559.45810479031 2503.267687181854 561.5898674684084L2503.267687181854 561.5898674684084L2503.267687181854 622.6268885160318Q2503.267687181854 633.0406717136393 2517.209905157004 633.0406717136393L2517.209905157004 633.0406717136393Q2519.145643680794 633.0406717136393 2519.6847101051408 634.0943015430444Q2520.2237765294876 635.1479313724493 2520.2237765294876 636.3975853561622L2520.2237765294876 636.3975853561622Q2520.2237765294876 638.847887285011 2517.209905157004 639.3869537093576L2517.209905157004 639.3869537093576L2488.810905801646 641.3226922331482Q2487.5857548372214 641.3226922331482 2487.389730682914 640.2690624037432Q2487.2182095478947 639.2154325743383 2487.2182095478947 637.7942574556059L2487.2182095478947 637.7942574556059L2487.2182095478947 627.9195406823453L2486.8751672778553 627.9195406823453Q2483.518253635333 631.1049331898487 2479.720285645617 634.2658226780636Q2475.9223176559017 637.4512151855671 2470.8991987017616 639.4849657865116Q2465.8760797476216 641.4942133681676 2458.4761679224985 641.4942133681676ZM2559.3796013524916 642.3763220625532L2559.3796013524916 642.3763220625532Q2554.0869491861777 642.3763220625532 2549.3333634442115 639.7299959793966Q2544.555274682956 637.0836698962398 2541.467894252607 631.619496594907Q2538.380513822258 626.1553232935742 2538.380513822258 617.8733027740652L2538.380513822258 617.8733027740652L2538.380513822258 566.0004109403362L2528.1627547789576 566.3434532103752Q2526.9131007952446 566.3434532103752 2526.3005253130323 565.3878354581241Q2525.687949830821 564.4077146865845 2525.687949830821 563.1825637221602L2525.687949830821 563.1825637221602Q2525.687949830821 559.6541289446179 2528.1627547789576 559.1150625202712L2528.1627547789576 559.1150625202712Q2534.6805579096954 557.8899115558468 2538.0374715522184 554.9740522605167Q2541.3943851947415 552.0581929651867 2543.2321116413777 547.9906917632977Q2545.094341107303 543.9476935806971 2546.6870373610545 539.1696048194419L2546.6870373610545 539.1696048194419Q2547.201600766113 537.7729327199982 2548.255230595518 537.3318783728054Q2549.3333634442115 536.8908240256126 2550.5585144086363 536.8908240256126L2550.5585144086363 536.8908240256126Q2551.612144238041 536.8908240256126 2552.9353072796193 537.4053874306709Q2554.258470321198 537.9444538550176 2554.258470321198 539.3656289737498L2554.258470321198 539.3656289737498L2553.033319356773 559.45810479031L2573.66486159768 558.2329538258856Q2575.2575578514316 558.0614326908662 2575.7966242757784 559.1150625202712Q2576.311187680837 560.1686923496761 2576.311187680837 561.5898674684084L2576.311187680837 561.5898674684084Q2576.311187680837 563.3540848571796 2575.6986121986247 565.1183022459506Q2575.0860367164123 566.8825196347218 2574.203928022027 566.8825196347218L2574.203928022027 566.8825196347218L2554.429991456217 566.3434532103752L2554.429991456217 619.9805624328752Q2554.429991456217 625.1016934641692 2556.635263192181 629.3407158010776Q2558.8405349281447 633.5552351186975 2564.6722535188046 633.5552351186975L2564.6722535188046 633.5552351186975Q2566.6079920425955 633.5552351186975 2569.0827969907323 633.2121928486587Q2571.55760193887 632.8691505786198 2574.375449157046 631.619496594907L2574.375449157046 631.619496594907Q2575.0860367164123 631.2764543248682 2575.7966242757784 631.0069211126947Q2576.4827088158563 630.7373879005214 2577.1932963752224 630.7373879005214L2577.1932963752224 630.7373879005214Q2578.6144714939546 630.7373879005214 2579.3250590533207 631.8890298070803Q2580.0111435933986 633.0406717136393 2580.5502100177446 634.2658226780636L2580.5502100177446 634.2658226780636Q2581.0892764420914 635.8585189318154 2579.66810132336 636.740627626201L2579.66810132336 636.740627626201Q2574.203928022027 640.2690624037432 2569.621863415079 641.3226922331482Q2565.015295788844 642.3763220625532 2559.3796013524916 642.3763220625532ZM2596.771208786724 639.9260201337045L2596.771208786724 639.9260201337045Q2595.546057822299 639.9260201337045 2594.7619612050685 638.7743782271455Q2593.9533615685477 637.6227363205866 2593.9533615685477 636.3975853561622L2593.9533615685477 636.3975853561622Q2594.3209068578753 633.7512592730054 2595.37453668728 633.4817260608321Q2596.4281665166855 633.2121928486587 2598.192383905456 633.2121928486587L2598.192383905456 633.2121928486587Q2603.1419938017307 633.2121928486587 2604.9062111905023 631.5459875370416Q2606.670428579273 629.8552792061358 2606.9154587721587 627.0374319879597Q2607.1849919843316 624.2195847697836 2607.1849919843316 621.2057133972996L2607.1849919843316 621.2057133972996L2607.1849919843316 580.8247376098715Q2607.1849919843316 577.639345102368 2606.9154587721587 574.8950069420574Q2606.670428579273 572.1751718010353 2604.9062111905023 570.4844634701296Q2603.1419938017307 568.8182581585124 2598.192383905456 568.8182581585124L2598.192383905456 568.8182581585124Q2596.5996876517047 568.8182581585124 2595.276524610126 568.3772038113195Q2593.9533615685477 567.9361494641269 2593.9533615685477 565.2898233809701L2593.9533615685477 565.2898233809701Q2593.9533615685477 562.6434972978134 2596.771208786724 562.1044308734668L2596.771208786724 562.1044308734668Q2604.9062111905023 560.8792799090422 2609.2187425852762 559.6541289446179Q2613.53127398005 558.404474960905 2615.8345577931677 557.5223662665194Q2618.1378416062853 556.6402575721338 2619.902058995057 556.4687364371144L2619.902058995057 556.4687364371144Q2621.2987310945 556.2972153020951 2622.27885186604 557.0078028614612Q2623.234469618291 557.6938874015389 2623.234469618291 559.8256500796374L2623.234469618291 559.8256500796374L2623.234469618291 621.2057133972996Q2623.234469618291 624.2195847697836 2623.5040028304647 627.0374319879597Q2623.7735360426377 629.8552792061358 2625.635765508563 631.5459875370416Q2627.4734919551993 633.2121928486587 2632.423101851474 633.2121928486587L2632.423101851474 633.2121928486587Q2634.015798105226 633.2121928486587 2635.1429369924963 633.4817260608321Q2636.2945788990555 633.7512592730054 2636.4661000340748 636.3975853561622L2636.4661000340748 636.3975853561622Q2636.4661000340748 637.6227363205866 2635.780015493997 638.7743782271455Q2635.0694279346308 639.9260201337045 2633.6482528158986 639.9260201337045L2633.6482528158986 639.9260201337045Q2628.527121784605 639.5584748443771 2624.214590389831 639.4849657865116Q2619.902058995057 639.3869537093576 2615.1239702338016 639.3869537093576L2615.1239702338016 639.3869537093576Q2610.3703844918346 639.3869537093576 2606.131362154927 639.4849657865116Q2601.8923398180177 639.5584748443771 2596.771208786724 639.9260201337045ZM2614.2418615394163 536.8908240256126L2614.2418615394163 536.8908240256126Q2609.31675466243 536.8908240256126 2605.959841019907 533.8034435952632Q2602.602927377384 530.7160631649136 2602.602927377384 526.1339985579664L2602.602927377384 526.1339985579664Q2602.602927377384 522.0664973560774 2606.670428579273 518.881104848574Q2610.713426761874 515.720215360359 2615.8345577931677 515.720215360359L2615.8345577931677 515.720215360359Q2620.2451012650954 515.720215360359 2623.0629484832716 518.8075957907085Q2625.880795701448 521.894976221058 2625.880795701448 526.6485619630246L2625.880795701448 526.6485619630246Q2625.880795701448 530.887584299933 2622.548385078214 533.8769526531286Q2619.191471435691 536.8908240256126 2614.2418615394163 536.8908240256126ZM2678.8073173645816 641.4942133681676L2678.8073173645816 641.4942133681676Q2665.2326446787592 641.4942133681676 2656.14202452273 636.642615549047Q2647.0514043667017 631.7910177299264 2647.0514043667017 622.6268885160318L2647.0514043667017 622.6268885160318Q2647.0514043667017 617.505757484738 2650.138784797051 614.344867996523Q2653.226165227401 611.1594754890195 2658.1757751236746 611.1594754890195L2658.1757751236746 611.1594754890195Q2661.3611676311784 611.1594754890195 2663.370415212835 612.8256808006367Q2665.4041658137785 614.5163891315424 2665.4041658137785 615.2269766909085L2665.4041658137785 615.2269766909085Q2665.4041658137785 615.7415400959668 2663.370415212835 617.6037695618919Q2661.3611676311784 619.4414960085285 2661.3611676311784 623.5089972104174L2661.3611676311784 623.5089972104174Q2661.3611676311784 628.458607106692 2666.016741295991 631.717508672061Q2670.6968179800924 634.9764102374298 2680.228492483314 634.9764102374298L2680.228492483314 634.9764102374298Q2688.5105130028232 634.9764102374298 2693.190589686924 631.3499633827337Q2697.8706663710254 627.7480195473258 2697.8706663710254 621.2057133972996L2697.8706663710254 621.2057133972996Q2697.8706663710254 615.9130612309862 2694.440243670637 613.0217049549447Q2690.98531795096 610.1058456596146 2685.6191567267815 608.3416282708434Q2680.228492483314 606.5774108820723 2674.151743699769 604.8131934933012Q2668.0504918969355 603.0489761045301 2662.5863185956023 600.4026500213733Q2657.12214529427 597.7563239382166 2653.667219574593 593.0762472541155Q2650.2367968742046 588.3961705700142 2650.2367968742046 580.6287134555636L2650.2367968742046 580.6287134555636Q2650.2367968742046 572.6897352060935 2654.990382616171 567.593107194088Q2659.768471377427 562.471976162794 2667.16838320255 559.8991591375028Q2674.5927980469614 557.3508451315 2682.1642310071047 557.3508451315L2682.1642310071047 557.3508451315Q2688.7065371571307 557.3508451315 2694.5137527285024 559.2130745974251Q2700.345471319163 561.0508010440617 2704.1434393088784 564.7507569566234Q2707.9169042793055 568.4752158884735 2707.9169042793055 574.1109103248258L2707.9169042793055 574.1109103248258Q2707.9169042793055 578.5214537967536 2705.0990570611293 582.0498885742959Q2702.281209842953 585.5783233518382 2697.3315999466786 585.5783233518382L2697.3315999466786 585.5783233518382Q2694.170710458464 585.5783233518382 2692.1369598575193 583.912118040221Q2690.1032092565747 582.2214097093154 2690.1032092565747 581.5108221499491L2690.1032092565747 581.5108221499491Q2690.1032092565747 581.1677798799103 2691.426372298153 580.1876591083708Q2692.7495353397317 579.2320413561198 2693.9991893234446 577.541333025214Q2695.2243402878685 575.8751277135968 2695.2243402878685 573.2288016304402L2695.2243402878685 573.2288016304402Q2694.88129801783 568.1076705991462 2690.274730391594 565.632865651009Q2685.692665784647 563.1825637221602 2680.0569713482946 563.1825637221602L2680.0569713482946 563.1825637221602Q2673.8822104875953 563.1825637221602 2668.5895583212823 566.1719320753557Q2663.2969061549693 569.1613004285512 2663.2969061549693 574.821497884192L2663.2969061549693 574.821497884192Q2663.2969061549693 579.9426289154859 2665.502177890933 582.760476133662Q2667.707449626897 585.5783233518382 2672.5590474460178 587.6120739527827Q2677.4106452651376 589.6458245537272 2685.1781023795884 592.096126482576L2685.1781023795884 592.096126482576Q2692.921056474751 594.5709314307132 2698.8507871425654 597.21725751387Q2704.756014791091 599.8635835970266 2708.0149163564593 604.200618011089Q2711.2738179218286 608.5131494058628 2711.2738179218286 615.9130612309862L2711.2738179218286 615.9130612309862Q2711.2738179218286 623.3374760753981 2707.0347955849193 629.1446916467697Q2702.8202762673 634.9764102374298 2695.4938735000424 638.2353118027987Q2688.167470732784 641.4942133681676 2678.8073173645816 641.4942133681676ZM2756.628906624819 642.3763220625532L2756.628906624819 642.3763220625532Q2751.336254458506 642.3763220625532 2746.558165697251 639.7299959793966Q2741.8045799552838 637.0836698962398 2738.7171995249346 631.619496594907Q2735.6298190945854 626.1553232935742 2735.6298190945854 617.8733027740652L2735.6298190945854 617.8733027740652L2735.6298190945854 566.0004109403362L2725.387557031997 566.3434532103752Q2724.162406067573 566.3434532103752 2723.5498305853607 565.3878354581241Q2722.91275208386 564.4077146865845 2722.91275208386 563.1825637221602L2722.91275208386 563.1825637221602Q2722.91275208386 559.6541289446179 2725.387557031997 559.1150625202712L2725.387557031997 559.1150625202712Q2731.929863182024 557.8899115558468 2735.262273805258 554.9740522605167Q2738.619187447781 552.0581929651867 2740.481416913706 547.9906917632977Q2742.3191433603424 543.9476935806971 2743.911839614094 539.1696048194419L2743.911839614094 539.1696048194419Q2744.4509060384416 537.7729327199982 2745.5045358678462 537.3318783728054Q2746.558165697251 536.8908240256126 2747.807819680964 536.8908240256126L2747.807819680964 536.8908240256126Q2748.8614495103693 536.8908240256126 2750.184612551947 537.4053874306709Q2751.5077755935254 537.9444538550176 2751.5077755935254 539.3656289737498L2751.5077755935254 539.3656289737498L2750.2581216098124 559.45810479031L2770.9141668700076 558.2329538258856Q2772.50686312376 558.0614326908662 2773.0214265288178 559.1150625202712Q2773.5604929531646 560.1686923496761 2773.5604929531646 561.5898674684084L2773.5604929531646 561.5898674684084Q2773.5604929531646 563.3540848571796 2772.9479174709522 565.1183022459506Q2772.3108389694517 566.8825196347218 2771.4287302750663 566.8825196347218L2771.4287302750663 566.8825196347218L2751.6792967285446 566.3434532103752L2751.6792967285446 619.9805624328752Q2751.6792967285446 625.1016934641692 2753.8845684645084 629.3407158010776Q2756.089840200473 633.5552351186975 2761.921558791133 633.5552351186975L2761.921558791133 633.5552351186975Q2763.857297314923 633.5552351186975 2766.3321022630607 633.2121928486587Q2768.7824041919093 632.8691505786198 2771.6247544293738 631.619496594907L2771.6247544293738 631.619496594907Q2772.3108389694517 631.2764543248682 2773.0214265288178 631.0069211126947Q2773.732014088184 630.7373879005214 2774.44260164755 630.7373879005214L2774.44260164755 630.7373879005214Q2775.839273746994 630.7373879005214 2776.54986130636 631.8890298070803Q2777.260448865726 633.0406717136393 2777.799515290073 634.2658226780636L2777.799515290073 634.2658226780636Q2778.3140786951317 635.8585189318154 2776.9174065956877 636.740627626201L2776.9174065956877 636.740627626201Q2771.4287302750663 640.2690624037432 2766.8466656681194 641.3226922331482Q2762.2646010611716 642.3763220625532 2756.628906624819 642.3763220625532Z " fill="#ffffff" transform="matrix(0.31498181472179065,0,0,0.3149818147217907,0,115.50342957122245)"/></g></svg>